<?xml version="1.0" encoding="utf-8"?>
<!-- Generator: Adobe Illustrator 27.0.0, SVG Export Plug-In . SVG Version: 6.00 Build 0)  -->
<svg version="1.1" id="Layer_1" xmlns="http://www.w3.org/2000/svg" xmlns:xlink="http://www.w3.org/1999/xlink" x="0px" y="0px"
	 viewBox="0 0 1042 1200" style="enable-background:new 0 0 1042 1200;" xml:space="preserve">
<style type="text/css">
	.st0{fill:#FFFFFF;}
</style>
<g>
	<g>
		<path class="st0" d="M550.98,314.78h76.21v-16.99c-106.68,0-215.08,0-216.98,0v242.46h16.9
			C438.41,466.97,455.14,314.78,550.98,314.78z"/>
		<path class="st0" d="M1030.48,297.79H666.8v16.99h245.63l-502.22,856.98v16.99h620.27V968.78h-16.99
			c-11.24,39.47-45.05,202.98-101.4,202.98H528.25l502.23-862.72V297.79z"/>
	</g>
	<path class="st0" d="M689.03,713.3c-23.73-61.98-71.83-110.94-122.65-151.87c-28.35-22.84-58.36-43.26-88.38-63.79
		c-126.63-86.59-273.23-159.9-286.62-286.53v-19.97c0-86.59,46.75-159.9,153.3-159.9h6.68c108.82,0,191.32,49.95,239.29,121.77
		c30.07,45.01,45.04,98.43,45.04,152.56v60.18l22.18-0.01v-93.24V11.26c0,0-19.99,0-19.99,0c0,13.87-1.82,31.28-14.38,39.64
		c-6.17,4.11-13.59,5.92-20.95,6.75c-10.08,1.14-20.36,0.53-30.25-1.73c-9.07-2.08-16.83-6.14-25.26-9.83
		c-16.31-7.15-33.31-12.67-50.54-17.15c-39.47-10.26-80.29-15.27-120.98-17.02c-10.28-0.44-20.56-0.66-30.85-0.66
		c-153.3,0-299.81,46.66-306.5,199.85v6.68c0,179.98,173.27,259.86,319.86,353.15c56.29,35.82,114.35,78.92,155.27,132.16
		c43.13,56.11,62.34,129.28,44.75,198.81c-3.13,12.36-7.45,24.42-13,35.89c-21.68,44.81-62.5,75.19-108.93,91
		c-55.4,18.86-117.05,19.1-174.39,10.28c-46.35-7.21-91.4-22.18-128.59-51.58c-31.12-24.6-54.17-57.56-69.59-93.91
		c-17.56-41.4-25.86-86.28-29.77-130.89c-1.12-12.8-1.87-25.63-2.31-38.47H11.52v339.85h19.99c0-39.95,13.37-60.01,40.04-60.01
		c5.78,0,11.85,2.65,17.18,4.41c5.84,1.94,11.69,3.83,17.41,6.09c31.27,12.32,63.31,19.83,95.17,29.12
		c16.52,4.82,33.14,9.37,50.02,12.73c62.84,12.5,129.47,9.62,192.29-1.65c38.18-6.84,75.75-17.8,110.97-34.18
		c47.47-22.06,91.25-54.87,119.19-99.78C711.32,860.46,714.14,778.88,689.03,713.3z"/>
</g>
</svg>
